<svg width="608.000000pt" height="608.000000pt" viewBox="0 0 608.000000 608.000000"
  xmlns="http://www.w3.org/2000/svg">
  <g transform="translate(0.000000,608.000000) scale(0.100000,-0.100000)" fill="#ffd700" stroke="none">
    <path d="M0 3040 l0 -3040 1525 0 1525 0 0 3040 0 3040 -1525 0 -1525 0 0
&#xA;-3040z" />
    <path d="M6075 3040 c0 -1675 1 -2360 2 -1523 2 838 2 2208 0 3045 -1 838 -2
&#xA;153 -2 -1522z" />
  </g>
  <g transform="translate(0.000000,608.000000) scale(0.100000,-0.100000)" fill="#ff6347" stroke="none">
    <path d="M3540 2360 l0 -2360 1270 0 1270 0 0 1778 0 1777 -68 32 c-37 17
&#xA;-119 55 -182 83 -63 29 -162 74 -220 102 -58 27 -202 94 -320 148 -118 54
&#xA;-242 112 -275 128 -33 16 -76 36 -95 45 -19 8 -127 58 -240 110 -113 52 -261
&#xA;121 -330 152 -69 32 -168 78 -220 102 -52 25 -167 78 -255 118 -88 40 -194 89
&#xA;-235 109 -41 20 -80 36 -87 36 l-13 0 0 -2360z" />
  </g>
  <g transform="translate(0.000000,608.000000) scale(0.100000,-0.100000)" fill="#00cdd0" stroke="none">
    <path d="M3540 5396 l0 -684 28 -10 c23 -9 273 -124 572 -264 41 -20 131 -61
&#xA;200 -93 69 -31 217 -100 330 -152 113 -52 221 -102 240 -110 19 -9 62 -29 95
&#xA;-45 33 -16 157 -74 275 -128 118 -54 267 -123 330 -153 63 -30 174 -80 245
&#xA;-112 72 -32 135 -61 140 -65 6 -5 27 -15 48 -23 l37 -16 0 1270 0 1269 -1270
&#xA;0 -1270 0 0 -684z" />
  </g>
  <g transform="translate(0.000000,608.000000) scale(0.100000,-0.100000)" fill="#808080" stroke="none">
    <path d="M3040 3040 l0 -3040 255 0 255 0 0 3040 0 3040 -255 0 -255 0 0
&#xA;-3040z" />
  </g>
  <g transform="translate(0.000000,608.000000) scale(0.100000,-0.100000)" fill="#d07660" stroke="none">
    <path d="M3540 2365 c0 -1303 2 -2366 5 -2363 7 6 7 4720 0 4726 -3 3 -5
&#xA;-1060 -5 -2363z" />
  </g>
  <g transform="translate(0.000000,608.000000) scale(0.100000,-0.100000)" fill="#61a59c" stroke="none">
    <path d="M3542 5403 c-1 -375 1 -684 6 -686 6 -5 6 487 -1 1123 -1 135 -3 -62
&#xA;-5 -437z" />
    <path d="M4393 4324 c9 -9 107 -54 107 -49 0 3 -22 16 -50 30 -48 24 -70 32
&#xA;-57 19z" />
  </g>
  <g transform="translate(0.000000,608.000000) scale(0.100000,-0.100000)" fill="#fe6348" stroke="none" />
  <g transform="translate(0.000000,608.000000) scale(0.100000,-0.100000)" fill="#f0694f" stroke="none" />
  <g transform="translate(0.000000,608.000000) scale(0.100000,-0.100000)" fill="#7f988c" stroke="none" />
  <g transform="translate(0.000000,608.000000) scale(0.100000,-0.100000)" fill="#c37c67" stroke="none" />
  <g transform="translate(0.000000,608.000000) scale(0.100000,-0.100000)" fill="#e86c53" stroke="none" />
  <g transform="translate(0.000000,608.000000) scale(0.100000,-0.100000)" fill="#ae8573" stroke="none" />
  <g transform="translate(0.000000,608.000000) scale(0.100000,-0.100000)" fill="#d6735d" stroke="none" />
  <g transform="translate(0.000000,608.000000) scale(0.100000,-0.100000)" fill="#a18a7a" stroke="none" />
  <g transform="translate(0.000000,608.000000) scale(0.100000,-0.100000)" fill="#e16f57" stroke="none" />
  <g transform="translate(0.000000,608.000000) scale(0.100000,-0.100000)" fill="#dd7159" stroke="none" />
  <g transform="translate(0.000000,608.000000) scale(0.100000,-0.100000)" fill="#949080" stroke="none" />
  <g transform="translate(0.000000,608.000000) scale(0.100000,-0.100000)" fill="#988e7e" stroke="none" />
  <g transform="translate(0.000000,608.000000) scale(0.100000,-0.100000)" fill="#b8816d" stroke="none" />
  <g transform="translate(0.000000,608.000000) scale(0.100000,-0.100000)" fill="#859689" stroke="none" />
  <g transform="translate(0.000000,608.000000) scale(0.100000,-0.100000)" fill="#879687" stroke="none" />
  <g transform="translate(0.000000,608.000000) scale(0.100000,-0.100000)" fill="#b7816e" stroke="none" />
  <g transform="translate(0.000000,608.000000) scale(0.100000,-0.100000)" fill="#899587" stroke="none" />
  <g transform="translate(0.000000,608.000000) scale(0.100000,-0.100000)" fill="#000000" stroke="none" />
  <g transform="translate(0.000000,608.000000) scale(0.100000,-0.100000)" fill="#000000" stroke="none" />
</svg>